<svg width="585" height="585" viewBox="0 0 585 585" fill="none" xmlns="http://www.w3.org/2000/svg">
<path d="M476.493 157.751H399.568V126.206C399.568 66.4428 351.115 17.9898 291.352 17.9898C231.585 17.9898 183.132 66.4428 183.132 126.206V157.751H99.8513C92.9763 157.77 87.4013 163.337 87.3818 170.22V504.09C87.3974 538.515 115.3 566.418 149.721 566.429H426.744C461.17 566.418 489.072 538.515 489.08 504.09V170.22C489.002 163.314 483.392 157.762 476.493 157.751V157.751ZM207.942 126.081C207.942 80.0875 245.234 42.7961 291.223 42.7961C337.225 42.7961 374.508 80.0875 374.508 126.081V157.626H207.942V126.081ZM464.024 504.09C463.962 524.726 447.252 541.436 426.623 541.494H149.6C128.964 541.436 112.254 524.726 112.196 504.09V182.686H183.007V233.426C183.007 240.313 188.594 245.896 195.473 245.896C202.36 245.896 207.942 240.313 207.942 233.426V182.686H374.633V233.426C374.633 240.313 380.216 245.896 387.103 245.896C393.982 245.896 399.568 240.313 399.568 233.426V182.686H464.024V504.09Z" fill="#262626"/>
</svg>
