<svg width="25" height="25" viewBox="0 0 25 25" fill="none" xmlns="http://www.w3.org/2000/svg">
<g clip-path="url(#clip0)">
<path d="M24.8181 23.9329L18.5681 17.6829C18.5652 17.68 18.5614 17.6792 18.5585 17.6767C20.2281 15.8 21.251 13.335 21.251 10.625C21.251 4.75708 16.4939 0 10.626 0C4.75809 0 0.00100708 4.75708 0.00100708 10.625C0.00100708 16.4929 4.75809 21.25 10.626 21.25C13.336 21.25 15.8006 20.2271 17.6777 18.5571C17.6806 18.56 17.6814 18.5638 17.6839 18.5667L23.9339 24.8167C24.056 24.9392 24.216 25 24.376 25C24.536 25 24.696 24.9392 24.8181 24.8171C25.0618 24.5729 25.0618 24.1771 24.8181 23.9329ZM10.626 20C5.45682 20 1.25101 15.7942 1.25101 10.625C1.25101 5.45581 5.45682 1.25 10.626 1.25C15.7952 1.25 20.001 5.45581 20.001 10.625C20.001 15.7942 15.7952 20 10.626 20Z" fill="#666666"/>
</g>
<defs>
<clipPath id="clip0">
<rect width="25" height="25" fill="white"/>
</clipPath>
</defs>
</svg>
