<svg width="512" height="512" viewBox="0 0 512 512" fill="none" xmlns="http://www.w3.org/2000/svg">
<path d="M508.255 490.146L380.255 362.146C380.195 362.086 380.118 362.069 380.059 362.018C414.252 323.584 435.201 273.101 435.201 217.6C435.201 97.425 337.776 0 217.601 0C97.426 0 0.00100708 97.425 0.00100708 217.6C0.00100708 337.775 97.426 435.2 217.601 435.2C273.102 435.2 323.576 414.251 362.019 380.049C362.079 380.109 362.096 380.186 362.147 380.245L490.147 508.245C492.647 510.754 495.924 512 499.201 512C502.478 512 505.755 510.754 508.255 508.254C513.247 503.253 513.247 495.147 508.255 490.146ZM217.601 409.6C111.736 409.6 25.601 323.465 25.601 217.6C25.601 111.735 111.736 25.6 217.601 25.6C323.466 25.6 409.601 111.735 409.601 217.6C409.601 323.465 323.466 409.6 217.601 409.6Z" fill="#262626"/>
</svg>
